<mxfile host="app.diagrams.net" agent="Mozilla/5.0 (Windows NT 10.0; Win64; x64) AppleWebKit/537.36 (KHTML, like Gecko) Chrome/138.0.0.0 Safari/537.36" version="28.0.7">
  <diagram name="PÃ¡gina-1" id="uCvBfsdPOklS4Wh7wJfT">
    <mxGraphModel dx="703" dy="828" grid="1" gridSize="10" guides="1" tooltips="1" connect="1" arrows="1" fold="1" page="1" pageScale="1" pageWidth="827" pageHeight="1169" math="0" shadow="0">
      <root>
        <mxCell id="0" />
        <mxCell id="1" parent="0" />
        <mxCell id="0DM_CmBEJePpICDMf6ei-5" style="edgeStyle=none;curved=1;rounded=0;orthogonalLoop=1;jettySize=auto;html=1;entryX=0.5;entryY=0;entryDx=0;entryDy=0;fontSize=12;startSize=8;endSize=8;" parent="1" source="0DM_CmBEJePpICDMf6ei-2" target="0DM_CmBEJePpICDMf6ei-3" edge="1">
          <mxGeometry relative="1" as="geometry" />
        </mxCell>
        <mxCell id="0DM_CmBEJePpICDMf6ei-2" value="inicio" style="strokeWidth=2;html=1;shape=mxgraph.flowchart.terminator;whiteSpace=wrap;" parent="1" vertex="1">
          <mxGeometry x="230" y="40" width="100" height="60" as="geometry" />
        </mxCell>
        <mxCell id="qtDNuNOly6toDbKkdOmx-4" style="edgeStyle=none;curved=1;rounded=0;orthogonalLoop=1;jettySize=auto;html=1;entryX=0.5;entryY=0;entryDx=0;entryDy=0;fontSize=12;startSize=8;endSize=8;" edge="1" parent="1" source="0DM_CmBEJePpICDMf6ei-3" target="qtDNuNOly6toDbKkdOmx-1">
          <mxGeometry relative="1" as="geometry" />
        </mxCell>
        <mxCell id="0DM_CmBEJePpICDMf6ei-3" value="lapices" style="shape=parallelogram;html=1;strokeWidth=2;perimeter=parallelogramPerimeter;whiteSpace=wrap;rounded=1;arcSize=12;size=0.23;" parent="1" vertex="1">
          <mxGeometry x="155" y="150" width="250" height="60" as="geometry" />
        </mxCell>
        <mxCell id="0DM_CmBEJePpICDMf6ei-4" style="edgeStyle=none;curved=1;rounded=0;orthogonalLoop=1;jettySize=auto;html=1;entryX=0.5;entryY=0;entryDx=0;entryDy=0;fontSize=12;startSize=8;endSize=8;" parent="1" source="0DM_CmBEJePpICDMf6ei-3" target="0DM_CmBEJePpICDMf6ei-3" edge="1">
          <mxGeometry relative="1" as="geometry" />
        </mxCell>
        <mxCell id="0DM_CmBEJePpICDMf6ei-10" style="edgeStyle=none;curved=1;rounded=0;orthogonalLoop=1;jettySize=auto;html=1;fontSize=12;startSize=8;endSize=8;" parent="1" source="0DM_CmBEJePpICDMf6ei-6" target="0DM_CmBEJePpICDMf6ei-9" edge="1">
          <mxGeometry relative="1" as="geometry" />
        </mxCell>
        <mxCell id="0DM_CmBEJePpICDMf6ei-6" value="Precio = lapices * valor_unidad" style="rounded=1;whiteSpace=wrap;html=1;absoluteArcSize=1;arcSize=14;strokeWidth=2;" parent="1" vertex="1">
          <mxGeometry x="165" y="455" width="230" height="50" as="geometry" />
        </mxCell>
        <mxCell id="0DM_CmBEJePpICDMf6ei-9" value="escribir &quot;el valor total es:&quot; , precio" style="strokeWidth=2;html=1;shape=mxgraph.flowchart.document2;whiteSpace=wrap;size=0.25;" parent="1" vertex="1">
          <mxGeometry x="182.5" y="555" width="195" height="60" as="geometry" />
        </mxCell>
        <mxCell id="0DM_CmBEJePpICDMf6ei-11" value="Fin" style="strokeWidth=2;html=1;shape=mxgraph.flowchart.terminator;whiteSpace=wrap;" parent="1" vertex="1">
          <mxGeometry x="230" y="655" width="100" height="60" as="geometry" />
        </mxCell>
        <mxCell id="0DM_CmBEJePpICDMf6ei-12" style="edgeStyle=none;curved=1;rounded=0;orthogonalLoop=1;jettySize=auto;html=1;entryX=0.5;entryY=0;entryDx=0;entryDy=0;entryPerimeter=0;fontSize=12;startSize=8;endSize=8;" parent="1" source="0DM_CmBEJePpICDMf6ei-9" target="0DM_CmBEJePpICDMf6ei-11" edge="1">
          <mxGeometry relative="1" as="geometry" />
        </mxCell>
        <mxCell id="qtDNuNOly6toDbKkdOmx-18" style="edgeStyle=orthogonalEdgeStyle;rounded=0;orthogonalLoop=1;jettySize=auto;html=1;fontSize=12;startSize=8;endSize=8;entryX=0.5;entryY=0;entryDx=0;entryDy=0;" edge="1" parent="1" source="qtDNuNOly6toDbKkdOmx-1" target="qtDNuNOly6toDbKkdOmx-11">
          <mxGeometry relative="1" as="geometry">
            <mxPoint x="120" y="290" as="targetPoint" />
            <Array as="points">
              <mxPoint x="130" y="290" />
            </Array>
          </mxGeometry>
        </mxCell>
        <mxCell id="qtDNuNOly6toDbKkdOmx-26" value="V" style="edgeLabel;html=1;align=center;verticalAlign=middle;resizable=0;points=[];fontSize=12;" vertex="1" connectable="0" parent="qtDNuNOly6toDbKkdOmx-18">
          <mxGeometry x="0.2174" y="3" relative="1" as="geometry">
            <mxPoint x="-5" y="-3" as="offset" />
          </mxGeometry>
        </mxCell>
        <mxCell id="qtDNuNOly6toDbKkdOmx-24" style="edgeStyle=orthogonalEdgeStyle;rounded=0;orthogonalLoop=1;jettySize=auto;html=1;fontSize=12;startSize=8;endSize=8;entryX=0.5;entryY=0;entryDx=0;entryDy=0;" edge="1" parent="1" source="qtDNuNOly6toDbKkdOmx-1" target="qtDNuNOly6toDbKkdOmx-7">
          <mxGeometry relative="1" as="geometry">
            <mxPoint x="440" y="290" as="targetPoint" />
            <Array as="points">
              <mxPoint x="430" y="290" />
            </Array>
          </mxGeometry>
        </mxCell>
        <mxCell id="qtDNuNOly6toDbKkdOmx-25" value="F" style="edgeLabel;html=1;align=center;verticalAlign=middle;resizable=0;points=[];fontSize=12;" vertex="1" connectable="0" parent="qtDNuNOly6toDbKkdOmx-24">
          <mxGeometry x="0.2348" y="2" relative="1" as="geometry">
            <mxPoint x="4" y="2" as="offset" />
          </mxGeometry>
        </mxCell>
        <mxCell id="qtDNuNOly6toDbKkdOmx-1" value="lapices &amp;gt;= 1000" style="rhombus;whiteSpace=wrap;html=1;" vertex="1" parent="1">
          <mxGeometry x="205" y="250" width="150" height="80" as="geometry" />
        </mxCell>
        <mxCell id="qtDNuNOly6toDbKkdOmx-2" style="edgeStyle=none;curved=1;rounded=0;orthogonalLoop=1;jettySize=auto;html=1;entryX=0.5;entryY=1;entryDx=0;entryDy=0;fontSize=12;startSize=8;endSize=8;" edge="1" parent="1" source="0DM_CmBEJePpICDMf6ei-3" target="0DM_CmBEJePpICDMf6ei-3">
          <mxGeometry relative="1" as="geometry" />
        </mxCell>
        <mxCell id="qtDNuNOly6toDbKkdOmx-29" style="edgeStyle=orthogonalEdgeStyle;rounded=0;orthogonalLoop=1;jettySize=auto;html=1;fontSize=12;startSize=8;endSize=8;" edge="1" parent="1" source="qtDNuNOly6toDbKkdOmx-7">
          <mxGeometry relative="1" as="geometry">
            <mxPoint x="280" y="450" as="targetPoint" />
          </mxGeometry>
        </mxCell>
        <mxCell id="qtDNuNOly6toDbKkdOmx-7" value="valor_unidad = 90" style="rounded=1;whiteSpace=wrap;html=1;absoluteArcSize=1;arcSize=14;strokeWidth=2;" vertex="1" parent="1">
          <mxGeometry x="355" y="330" width="150" height="50" as="geometry" />
        </mxCell>
        <mxCell id="qtDNuNOly6toDbKkdOmx-28" style="edgeStyle=orthogonalEdgeStyle;rounded=0;orthogonalLoop=1;jettySize=auto;html=1;fontSize=12;startSize=8;endSize=8;" edge="1" parent="1" source="qtDNuNOly6toDbKkdOmx-11">
          <mxGeometry relative="1" as="geometry">
            <mxPoint x="280" y="450" as="targetPoint" />
          </mxGeometry>
        </mxCell>
        <mxCell id="qtDNuNOly6toDbKkdOmx-11" value="valor_unidad = 85" style="rounded=1;whiteSpace=wrap;html=1;absoluteArcSize=1;arcSize=14;strokeWidth=2;" vertex="1" parent="1">
          <mxGeometry x="55" y="330" width="150" height="50" as="geometry" />
        </mxCell>
      </root>
    </mxGraphModel>
  </diagram>
</mxfile>
